<?xml version="1.0" encoding="utf-8"?>
<!-- Generator: Adobe Illustrator 26.0.1, SVG Export Plug-In . SVG Version: 6.00 Build 0)  -->
<svg version="1.1" id="Camada_1" xmlns="http://www.w3.org/2000/svg" xmlns:xlink="http://www.w3.org/1999/xlink" x="0px" y="0px"
	 viewBox="0 0 150 90" style="enable-background:new 0 0 150 90;" xml:space="preserve">
<style type="text/css">
	.st0{fill:#FFFFFF;}
</style>
<path class="st0" d="M70.7,20.7c-0.7-2.4-2.3-4.5-4.6-5.7c-6.9-3.8-13.7-7.5-20.6-11.2c-1.1-0.6-2.3-1.1-3.5-1.6
	c-1.1-0.4-2.3-0.6-3.5-0.5c-0.2,0-0.3,0-0.5,0.1c-0.8,0.4-1.6,0.8-2.3,1.2c-3.4,1.7-6.8,3.3-10.1,5c-4.5,2.3-8.7,4.7-13.1,7.2
	c-1.7,1-3.2,2.2-4,4c-0.7,1.4-1,3-1,4.6v23c0,0.9,0,1.8,0.2,2.7c0.6,2.6,2.2,4.5,4.6,5.8c6.8,3.7,13.6,7.5,20.4,11.2
	c1.5,1,3.2,1.7,5,2.3h2.9c0.1,0,0.1,0,0.2,0c2.2-1.1,4.6-2,6.8-3.2c6.2-3.4,12.4-6.8,18.6-10.2c3.3-1.8,4.9-4.5,5-8v-24
	C71.1,22.4,70.9,21.5,70.7,20.7z M65.6,47c0,1.9-0.9,3.2-2.6,4.2c-2.6,1.4-5.1,2.8-7.6,4.2c-4.7,2.5-9.3,5-14,7.6
	c-1.7,0.9-3.4,0.9-5.1,0c-6.6-3.6-13-7.2-19.6-10.8c-0.7-0.4-1.2-0.7-1.8-1c-1.8-1-2.7-2.4-2.7-4.4V23.1c0-1.7,0.9-3.1,2.5-4
	c7.1-3.9,14.1-7.8,21.2-11.6c0.7-0.3,1.3-0.7,2.1-0.8c1.2-0.2,2.5,0,3.5,0.7c3.1,1.7,6.1,3.4,9.1,5c4,2.1,8,4.3,12.1,6.5
	c1.1,0.5,1.9,1.3,2.4,2.3c0.3,0.6,0.4,1.3,0.4,2V35c0,3.2,0,6.2,0,9.6L65.6,47L65.6,47z"/>
<path class="st0" d="M47.7,36.2c-0.7,3.9-2.3,7.5-4.4,10.8c-0.8,1.3-1.7,2.6-2.7,3.9c-0.2,0.2-0.2,0.2-0.4,0
	c-0.5-0.6-0.9-1.2-1.4-1.7c-0.2-0.3-0.2-0.4,0-0.7c1.8-2.3,3.2-4.7,4.4-7.3c0.8-1.9,1.4-3.8,1.7-5.8c0.3-1.9,0.1-3.9-0.5-5.8
	c0,0,0,0,0-0.1s0-0.1,0-0.1l0,0c-0.1-0.1-0.1-0.1-0.1-0.2c-0.1-0.3-0.1-0.5-0.2-0.8c-0.1-0.2-0.2-0.4-0.3-0.5c0-0.1-0.1-0.2-0.1-0.2
	c-1-1.8-1.9-3.6-2.9-5.3c-0.7-1.2-1.2-2.4-1.9-3.7c-0.1,0.1-0.1,0.2-0.2,0.2c-2.2,5.8-4.3,11.6-6.6,17.4c-0.2,0.5-0.4,1-0.5,1.5
	c-0.1,0.2-0.1,0.4-0.2,0.6c-0.4,0.6-0.7,1.1-1,1.7c-1.2,2.3-2.4,4.6-3.5,6.9c-0.5,1.2-1.2,2.4-1.7,3.6c-0.1,0.2-0.2,0.5-0.5,0.5
	c0.9-2.4,1.8-5,2.7-7.5c3.5-9.2,6.9-18.3,10.3-27.6c0.2-0.6,0.7-1,1.3-1c0.7-0.1,1.2,0.3,1.5,0.9c0.9,1.7,1.8,3.5,2.7,5.2
	c1.1,2,2.1,4,3.2,5.8c0.1,0.2,0.2,0.6,0.3,0.8c0.2,0.2,0.3,0.4,0.5,0.6c0.1,0.1,0.1,0.2,0.2,0.2c0,0.5,0.2,0.8,0.2,1.2
	C48.1,31.9,48.2,34.1,47.7,36.2z"/>
<path class="st0" d="M44.4,29.5L44.4,29.5c-3.3,0.6-6.2,2.4-8.1,4.9c-2,2.3-3.5,4.9-4.8,7.5c-2.1,4-3.9,8-5.8,12.1
	c-0.1,0.3-0.3,0.6-0.5,0.9c-0.1,0.2-0.2,0.3-0.6,0.2c-0.2-0.1-0.5-0.2-0.7-0.3c-0.2-0.1-0.2-0.3-0.2-0.5c0.2-0.7,0.6-1.4,0.9-2.1
	c0.1-0.3,0.2-0.6,0.2-0.9c0.2-0.1,0.3-0.2,0.5-0.5c0.5-1.2,1.1-2.4,1.7-3.6c1.1-2.4,2.3-4.6,3.5-6.9c0.3-0.6,0.6-1.2,1-1.7
	c0.1-0.2,0.2-0.4,0.2-0.6c0.1,0,0.2-0.1,0.2-0.2c1.3-2.1,2.7-4.2,4.6-5.9c1.9-1.9,4.4-3.2,7.1-3.8c0.1,0.1,0.2,0.3,0.2,0.4
	c0.2,0.3,0.3,0.6,0.4,1v0.1C44.4,29.3,44.4,29.4,44.4,29.5C44.4,29.4,44.4,29.5,44.4,29.5z"/>
<path class="st0" d="M52.3,26c-1.4,1.2-3.1,2.1-5,2.6c-0.1-0.1-0.2-0.1-0.2-0.2C47,28.2,47,28,46.9,27.9c-0.1-0.2-0.2-0.6-0.3-0.8
	c1.1-0.3,2.2-0.7,3.2-1.2c0.9-0.5,1.8-1.2,2.4-2C52.8,23,53,22,52.8,21c-0.1-0.2,0-0.4,0.2-0.4s0.6-0.1,0.8-0.1
	c0.4-0.1,0.5,0.1,0.5,0.5C54.6,22.9,53.8,24.7,52.3,26z"/>
<path class="st0" d="M73.8,52.7c0.4-0.2,0.9-0.4,1.3-0.5c0.6-0.2,1.2-0.2,1.8-0.2c0.8,0,1.5,0.1,2.2,0.3c0.6,0.2,1,0.6,1.2,1.1
	c0.3,0.8,0.6,1.8,1,2.9c0.4,1.1,0.7,2.2,1.1,3.4c0.4,1.1,0.7,2.3,1,3.5c0.3,1.1,0.6,2.1,0.9,3c-0.2,0.2-0.5,0.4-0.9,0.5
	c-0.5,0.1-1,0.2-1.5,0.2c-0.3,0-0.7,0-1-0.1c-0.2-0.1-0.5-0.2-0.7-0.3c-0.2-0.1-0.3-0.3-0.4-0.5c-0.1-0.2-0.2-0.5-0.3-0.7l-0.5-1.6
	h-4.6c-0.1,0.5-0.3,1-0.4,1.5c-0.1,0.5-0.3,1-0.4,1.5c-0.2,0.1-0.5,0.2-0.7,0.2c-0.3,0.1-0.6,0.1-1,0.1c-0.7,0-1.3-0.1-1.9-0.4
	c-0.4-0.3-0.7-0.7-0.6-1.2c0-0.2,0-0.5,0.1-0.7c0.1-0.2,0.1-0.5,0.2-0.8c0.1-0.4,0.3-1,0.5-1.6c0.2-0.6,0.4-1.3,0.7-2
	s0.5-1.5,0.8-2.3c0.3-0.8,0.6-1.5,0.8-2.2c0.2-0.7,0.5-1.3,0.7-1.8C73.5,53.4,73.7,53,73.8,52.7z M76.8,55.8
	c-0.2,0.7-0.5,1.4-0.8,2.2c-0.3,0.8-0.6,1.6-0.8,2.5h3.2c-0.2-0.8-0.5-1.7-0.7-2.5c-0.2-0.8-0.5-1.5-0.7-2.2L76.8,55.8L76.8,55.8z"
	/>
<path class="st0" d="M90.9,66.6c-0.2,0-0.5,0.1-0.9,0.2c-0.4,0.1-0.8,0.1-1.2,0.1c-0.3,0-0.7,0-1-0.1c-0.3-0.1-0.5-0.2-0.7-0.3
	c-0.2-0.2-0.4-0.4-0.5-0.6c-0.1-0.3-0.2-0.7-0.2-1V52.3c0.2,0,0.5-0.1,0.9-0.1c0.4-0.1,0.8-0.1,1.2-0.1c0.3,0,0.7,0,1,0.1
	c0.3,0.1,0.5,0.2,0.7,0.3c0.2,0.2,0.4,0.4,0.5,0.6c0.1,0.3,0.2,0.7,0.2,1V66.6z"/>
<path class="st0" d="M98.5,60.9c-0.7-0.2-1.4-0.5-2.1-0.7c-0.6-0.2-1.1-0.5-1.6-0.9c-0.4-0.3-0.8-0.8-1-1.2
	c-0.3-0.6-0.4-1.2-0.4-1.8c0-1.3,0.6-2.5,1.7-3.3c1.1-0.8,2.7-1.2,4.6-1.2c0.7,0,1.4,0,2.1,0.2c0.6,0.1,1.1,0.2,1.6,0.4
	c0.4,0.2,0.8,0.4,1,0.8c0.2,0.3,0.4,0.7,0.4,1.1c0,0.4-0.1,0.7-0.3,1c-0.2,0.3-0.5,0.5-0.7,0.7c-0.5-0.3-1-0.5-1.5-0.6
	c-0.7-0.2-1.4-0.3-2.1-0.2c-0.6,0-1.1,0.1-1.7,0.3c-0.3,0.1-0.5,0.4-0.5,0.7c0,0.2,0.1,0.5,0.3,0.6c0.3,0.2,0.6,0.3,1,0.4l1.3,0.4
	c1.3,0.3,2.6,1,3.6,1.8c0.9,0.8,1.3,1.9,1.3,3c0,1.3-0.6,2.5-1.7,3.3c-1.1,0.8-2.8,1.2-5,1.2c-0.7,0-1.4-0.1-2.2-0.2
	c-0.6-0.1-1.2-0.3-1.8-0.5c-0.4-0.2-0.8-0.5-1.2-0.8c-0.3-0.3-0.4-0.7-0.4-1.2c0-0.4,0.1-0.8,0.4-1.2c0.3-0.3,0.6-0.6,1-0.7
	c0.5,0.4,1.1,0.7,1.7,0.9c0.7,0.3,1.5,0.4,2.2,0.4c0.8,0,1.4-0.1,1.8-0.3c0.3-0.2,0.5-0.5,0.5-0.8c0-0.3-0.2-0.6-0.4-0.7
	c-0.4-0.2-0.7-0.4-1.1-0.5L98.5,60.9z"/>
<path class="st0" d="M112.5,60.9c-0.7-0.2-1.4-0.5-2.1-0.7c-0.6-0.2-1.1-0.5-1.6-0.9c-0.4-0.3-0.8-0.8-1-1.2
	c-0.3-0.6-0.4-1.2-0.4-1.8c0-1.3,0.6-2.5,1.7-3.3c1.1-0.8,2.7-1.2,4.6-1.2c0.7,0,1.4,0,2.1,0.2c0.6,0.1,1.1,0.2,1.6,0.4
	c0.4,0.2,0.8,0.4,1,0.8c0.2,0.3,0.4,0.7,0.4,1.1c0,0.4-0.1,0.7-0.3,1c-0.2,0.3-0.5,0.5-0.7,0.7c-0.5-0.3-1-0.5-1.5-0.6
	c-0.7-0.2-1.4-0.3-2.1-0.2c-0.6,0-1.1,0.1-1.7,0.3c-0.3,0.1-0.5,0.4-0.5,0.7c0,0.2,0.1,0.5,0.3,0.6c0.3,0.2,0.6,0.3,1,0.4l1.3,0.4
	c1.3,0.3,2.6,1,3.6,1.8c0.9,0.8,1.3,1.9,1.3,3c0,1.3-0.6,2.5-1.7,3.3c-1.1,0.8-2.8,1.2-5,1.2c-0.7,0-1.4-0.1-2.2-0.2
	c-0.6-0.1-1.2-0.3-1.8-0.5c-0.4-0.2-0.8-0.5-1.2-0.8c-0.3-0.3-0.4-0.7-0.4-1.2c0-0.4,0.1-0.8,0.4-1.2c0.3-0.3,0.6-0.6,1-0.7
	c0.5,0.4,1.1,0.7,1.7,0.9c0.7,0.3,1.5,0.4,2.2,0.4c0.8,0,1.4-0.1,1.8-0.3c0.3-0.2,0.5-0.5,0.5-0.8c0-0.3-0.2-0.6-0.4-0.7
	c-0.4-0.2-0.7-0.4-1.1-0.5L112.5,60.9z"/>
<path class="st0" d="M125.5,52.7c0.4-0.2,0.9-0.4,1.3-0.5c0.6-0.2,1.2-0.2,1.8-0.2c0.8,0,1.5,0.1,2.2,0.3c0.6,0.2,1,0.6,1.2,1.1
	c0.3,0.8,0.6,1.8,1,2.9s0.7,2.2,1.1,3.4c0.4,1.1,0.7,2.3,1,3.5c0.3,1.1,0.6,2.1,0.9,3c-0.2,0.2-0.5,0.4-0.9,0.5
	c-0.5,0.1-1,0.2-1.5,0.2c-0.3,0-0.7,0-1-0.1c-0.2-0.1-0.5-0.2-0.7-0.3c-0.2-0.1-0.3-0.3-0.4-0.5c-0.1-0.2-0.2-0.5-0.3-0.7l-0.5-1.6
	h-4.6c-0.1,0.5-0.3,1-0.4,1.5c-0.1,0.5-0.3,1-0.4,1.5c-0.2,0.1-0.5,0.2-0.7,0.2c-0.3,0.1-0.6,0.1-1,0.1c-0.7,0-1.3-0.1-1.9-0.4
	c-0.4-0.3-0.7-0.7-0.6-1.2c0-0.2,0-0.5,0.1-0.7c0.1-0.2,0.1-0.5,0.2-0.8c0.1-0.4,0.3-1,0.5-1.6c0.2-0.6,0.4-1.3,0.7-2
	c0.3-0.7,0.5-1.5,0.8-2.3c0.3-0.8,0.6-1.5,0.8-2.2s0.5-1.3,0.7-1.8C125.2,53.4,125.4,53,125.5,52.7z M128.5,55.8
	c-0.2,0.7-0.5,1.4-0.8,2.2s-0.6,1.6-0.8,2.5h3.2c-0.2-0.8-0.5-1.7-0.7-2.5c-0.2-0.8-0.5-1.5-0.7-2.2L128.5,55.8L128.5,55.8z"/>
<path class="st0" d="M2,76.7c-0.2-0.2-0.3-0.5-0.3-0.7c-0.1-0.3-0.2-0.6-0.2-1c0-0.5,0.1-1,0.4-1.3c0.3-0.3,0.7-0.4,1.2-0.4h11
	c0.2,0.2,0.3,0.5,0.3,0.7c0.1,0.3,0.2,0.6,0.2,1c0,0.6-0.1,1.1-0.4,1.3c-0.3,0.3-0.7,0.4-1.2,0.4h-2.8v11.1c-0.2,0-0.5,0.1-0.9,0.2
	C8.9,88,8.5,88,8.1,88c-0.3,0-0.7,0-1-0.1c-0.3-0.1-0.5-0.2-0.7-0.3C6.1,87.5,6,87.3,5.9,87c-0.1-0.3-0.2-0.7-0.2-1v-9.3H2z"/>
<path class="st0" d="M16.8,75.6c0-0.6,0.2-1.2,0.6-1.6c0.5-0.4,1.1-0.6,1.7-0.6h8.4c0.1,0.2,0.3,0.5,0.3,0.7
	c0.1,0.3,0.1,0.6,0.1,0.9c0,0.5-0.1,0.9-0.4,1.3c-0.3,0.3-0.7,0.4-1.1,0.4h-5.3v2.2h5.7c0.1,0.2,0.2,0.4,0.3,0.7
	c0.1,0.3,0.2,0.6,0.1,0.9c0,0.5-0.1,0.9-0.4,1.3c-0.3,0.3-0.7,0.4-1.1,0.4h-4.7v2.5h6.5c0.1,0.2,0.3,0.5,0.3,0.7
	c0.1,0.3,0.1,0.6,0.1,0.9c0,0.5-0.1,0.9-0.4,1.3C27.4,87.9,27,88,26.6,88h-7.4c-0.6,0-1.3-0.2-1.7-0.6c-0.4-0.4-0.7-1-0.6-1.6V75.6z
	"/>
<path class="st0" d="M38.4,76.3c-1.3,0-2.3,0.4-3,1.1c-0.7,0.8-1,1.8-1,3.2c0,1.4,0.4,2.5,1.2,3.2c0.8,0.8,2,1.2,3.1,1.1
	c0.6,0,1.2-0.1,1.8-0.3c0.5-0.2,0.9-0.4,1.4-0.6c0.3,0.2,0.5,0.5,0.7,0.8c0.2,0.3,0.3,0.7,0.2,1.1c0,0.7-0.4,1.2-1.2,1.7
	c-0.8,0.5-1.9,0.7-3.5,0.7c-1.1,0-2.2-0.2-3.2-0.5c-1-0.3-1.9-0.8-2.6-1.4c-0.8-0.7-1.4-1.5-1.8-2.4c-0.5-1.1-0.7-2.3-0.6-3.5
	c0-1.1,0.2-2.3,0.6-3.3c0.4-0.9,1-1.7,1.7-2.4c0.7-0.7,1.6-1.2,2.5-1.5c1-0.3,2.1-0.5,3.1-0.5c1.6,0,2.8,0.2,3.6,0.7
	c0.8,0.5,1.3,1.1,1.3,1.8c0,0.4-0.1,0.8-0.3,1.1c-0.2,0.3-0.5,0.5-0.8,0.7c-0.4-0.3-0.9-0.5-1.4-0.7C39.6,76.4,39,76.3,38.4,76.3z"
	/>
<path class="st0" d="M59,87.4c-0.3,0.3-0.6,0.4-1,0.5c-0.5,0.1-1.1,0.2-1.6,0.2c-0.6,0-1.2-0.1-1.8-0.3c-0.6-0.2-1.1-0.7-1.4-1.3
	l-2.5-4.8c-0.2-0.5-0.5-1-0.7-1.4c-0.2-0.5-0.5-1-0.6-1.5l-0.2,0c0.1,0.8,0.1,1.7,0.1,2.6c0,0.9,0,1.8,0,2.6v3.7
	c-0.2,0-0.5,0.1-0.8,0.2s-0.8,0.1-1.1,0.1c-0.3,0-0.7,0-1-0.1c-0.3,0-0.5-0.1-0.7-0.3c-0.2-0.2-0.3-0.4-0.4-0.6
	c-0.1-0.3-0.2-0.6-0.2-1v-12c0.3-0.4,0.7-0.6,1.1-0.7c0.5-0.2,1-0.2,1.6-0.2c0.6,0,1.2,0.1,1.8,0.3c0.6,0.2,1.1,0.7,1.4,1.3l2.5,4.8
	c0.2,0.5,0.5,1,0.7,1.4c0.2,0.4,0.4,0.9,0.7,1.5l0.1,0c-0.1-0.8-0.1-1.7-0.1-2.6c0-0.8,0-1.7,0-2.6v-3.9c0.2,0,0.5-0.1,0.8-0.2
	c0.4-0.1,0.8-0.1,1.1-0.1c0.6,0,1.2,0.1,1.7,0.4c0.4,0.2,0.6,0.8,0.6,1.5L59,87.4z"/>
<path class="st0" d="M61.5,80.6c0-1.1,0.2-2.3,0.6-3.3c0.4-0.9,0.9-1.7,1.7-2.4c0.7-0.7,1.6-1.2,2.5-1.5c2-0.7,4.3-0.7,6.3,0
	c2,0.6,3.5,2.1,4.2,3.9c0.8,2.1,0.9,4.5,0,6.6c-0.4,0.9-1,1.8-1.7,2.4c-0.7,0.7-1.6,1.2-2.5,1.5c-1,0.3-2.1,0.5-3.2,0.5
	c-1.1,0-2.2-0.2-3.2-0.5c-1-0.3-1.8-0.8-2.5-1.5c-0.7-0.7-1.3-1.5-1.7-2.4C61.7,82.8,61.5,81.7,61.5,80.6z M66,80.6
	c0,1.5,0.3,2.5,1,3.3c0.6,0.7,1.5,1.1,2.5,1.1c1,0,1.9-0.4,2.5-1.1c0.6-0.7,1-1.8,1-3.3c0-1.4-0.3-2.5-0.9-3.3
	c-1.2-1.3-3.4-1.4-4.7-0.3c-0.1,0.1-0.2,0.2-0.3,0.3C66.4,78.1,66,79.1,66,80.6L66,80.6z"/>
<path class="st0" d="M82.4,88c-0.6,0-1.3-0.2-1.7-0.6c-0.4-0.4-0.7-1-0.6-1.6V73.3c0.2,0,0.5-0.1,0.9-0.1c0.4-0.1,0.8-0.1,1.2-0.1
	c0.3,0,0.7,0,1,0.1c0.3,0.1,0.5,0.2,0.7,0.3c0.2,0.2,0.4,0.4,0.5,0.6c0.1,0.3,0.2,0.7,0.2,1v9.5h5.8c0.1,0.2,0.3,0.5,0.3,0.7
	c0.1,0.3,0.2,0.6,0.2,0.9c0,0.6-0.1,1.1-0.4,1.4c-0.3,0.3-0.7,0.4-1.1,0.4H82.4z"/>
<path class="st0" d="M91.6,80.6c0-1.1,0.2-2.3,0.6-3.3c0.4-0.9,0.9-1.7,1.7-2.4c0.7-0.7,1.6-1.2,2.5-1.5c2-0.7,4.3-0.7,6.3,0
	c2,0.6,3.5,2.1,4.2,3.9c0.8,2.1,0.9,4.5,0,6.6c-0.4,0.9-1,1.8-1.7,2.4c-0.7,0.7-1.6,1.2-2.5,1.5c-1,0.3-2.1,0.5-3.2,0.5
	c-1.1,0-2.2-0.2-3.2-0.5c-1-0.3-1.8-0.8-2.5-1.5c-0.7-0.7-1.3-1.5-1.7-2.4C91.8,82.8,91.6,81.7,91.6,80.6z M96.1,80.6
	c0,1.5,0.3,2.5,1,3.3c0.6,0.7,1.5,1.1,2.5,1.1c1,0,1.9-0.4,2.5-1.1c0.6-0.7,1-1.8,1-3.3c0-1.4-0.3-2.5-0.9-3.3
	c-1.2-1.3-3.4-1.4-4.7-0.3c-0.1,0.1-0.2,0.2-0.3,0.3C96.5,78.1,96.1,79.1,96.1,80.6L96.1,80.6z"/>
<path class="st0" d="M124.1,85.5c0,0.4-0.1,0.8-0.3,1.1c-0.2,0.3-0.5,0.5-0.9,0.7c-0.3,0.2-0.6,0.3-0.9,0.4
	c-0.4,0.1-0.8,0.2-1.2,0.3c-0.4,0.1-0.9,0.2-1.3,0.2c-0.5,0-0.9,0.1-1.4,0.1c-1.2,0-2.3-0.2-3.4-0.5c-1-0.3-1.9-0.8-2.8-1.4
	c-0.8-0.6-1.5-1.5-1.9-2.4c-0.5-1-0.7-2.2-0.7-3.3c0-1.2,0.2-2.4,0.7-3.5c0.9-1.9,2.7-3.3,4.8-3.9c1.1-0.3,2.2-0.5,3.3-0.5
	c1.6,0,2.9,0.2,3.8,0.7c1,0.5,1.4,1.1,1.4,1.9c0,0.4-0.1,0.8-0.3,1.1c-0.2,0.3-0.5,0.5-0.8,0.7c-0.5-0.3-1-0.5-1.6-0.7
	c-0.7-0.2-1.4-0.4-2.2-0.3c-1.4,0-2.5,0.4-3.4,1.2c-0.8,0.8-1.2,1.8-1.2,3.2c0,0.7,0.1,1.3,0.4,1.9c0.2,0.5,0.5,0.9,0.9,1.3
	c0.4,0.3,0.8,0.6,1.3,0.8c0.5,0.2,1.1,0.3,1.6,0.3c0.3,0,0.7,0,1-0.1c0.2,0,0.4-0.1,0.6-0.2v-2.2h-2.7c-0.1-0.2-0.2-0.5-0.3-0.7
	c-0.1-0.3-0.1-0.6-0.1-0.9c0-0.5,0.1-0.9,0.4-1.2c0.3-0.3,0.7-0.4,1.1-0.4h4.3c0.8-0.1,1.5,0.5,1.6,1.3c0,0.1,0,0.2,0,0.2
	L124.1,85.5L124.1,85.5z"/>
<path class="st0" d="M131.4,87.8c-0.2,0-0.5,0.1-0.9,0.2c-0.4,0.1-0.8,0.1-1.2,0.1c-0.3,0-0.7,0-1-0.1c-0.3-0.1-0.5-0.2-0.7-0.3
	c-0.2-0.2-0.4-0.4-0.5-0.6c-0.1-0.3-0.2-0.7-0.2-1V73.4c0.2,0,0.5-0.1,0.9-0.1c0.4-0.1,0.8-0.1,1.2-0.1c0.3,0,0.7,0,1,0.1
	c0.3,0.1,0.5,0.2,0.7,0.3c0.2,0.2,0.4,0.4,0.5,0.6c0.1,0.3,0.2,0.7,0.2,1V87.8L131.4,87.8z"/>
<path class="st0" d="M138,73.8c0.4-0.2,0.9-0.4,1.3-0.5c0.6-0.2,1.2-0.2,1.8-0.2c0.8,0,1.5,0.1,2.2,0.3c0.6,0.2,1,0.6,1.2,1.1
	c0.3,0.8,0.6,1.8,1,2.9c0.4,1.1,0.7,2.2,1.1,3.4c0.4,1.2,0.7,2.3,1,3.5c0.3,1.1,0.6,2.1,0.9,3.1c-0.2,0.2-0.5,0.4-0.9,0.5
	c-0.5,0.1-1,0.2-1.5,0.2c-0.3,0-0.7,0-1-0.1c-0.2-0.1-0.5-0.2-0.7-0.3c-0.2-0.1-0.3-0.3-0.4-0.5c-0.1-0.2-0.2-0.5-0.3-0.7l-0.5-1.7
	h-4.6c-0.1,0.5-0.3,1-0.4,1.5s-0.3,1-0.4,1.5c-0.2,0.1-0.5,0.2-0.7,0.2c-0.3,0.1-0.6,0.1-1,0.1c-0.7,0-1.3-0.1-1.9-0.4
	c-0.4-0.3-0.7-0.7-0.6-1.2c0-0.2,0-0.5,0.1-0.7c0.1-0.2,0.1-0.5,0.2-0.8c0.1-0.4,0.3-1,0.5-1.6c0.2-0.6,0.4-1.3,0.7-2.1
	s0.5-1.5,0.8-2.3c0.3-0.8,0.6-1.5,0.8-2.2c0.2-0.7,0.5-1.3,0.7-1.9C137.8,74.5,137.9,74.1,138,73.8z M141.1,76.9
	c-0.2,0.7-0.5,1.4-0.8,2.2c-0.3,0.8-0.6,1.7-0.8,2.5h3.2c-0.2-0.8-0.5-1.7-0.7-2.5c-0.2-0.8-0.5-1.5-0.7-2.2H141.1z"/>
</svg>
