<?xml version="1.0" encoding="utf-8"?>
<!-- Generator: Adobe Illustrator 26.0.1, SVG Export Plug-In . SVG Version: 6.00 Build 0)  -->
<svg version="1.1" id="Camada_1" xmlns="http://www.w3.org/2000/svg" xmlns:xlink="http://www.w3.org/1999/xlink" x="0px" y="0px"
	 viewBox="0 0 750 500" style="enable-background:new 0 0 750 500;" xml:space="preserve">
<style type="text/css">
	.st0{fill:#2B363F;}
	.st1{fill:#FFFFFF;}
	.st2{fill:#314A37;}
</style>
<g>
	<path class="st0" d="M362.4,168.9c-2.1-7.5-6.5-13.2-13.1-16.9c-19.5-11.2-38.8-22.3-58.2-33.5c-3.1-1.6-6.3-3.3-9.9-4.7
		c-3.1-1.2-6.3-1.9-9.9-1.6c-0.5,0-1,0-1.4,0.3c-2.2,1.2-4.5,2.4-6.6,3.5c-9.6,5-19.2,9.9-28.6,15c-12.7,6.8-24.6,14.1-37.1,21.4
		c-4.9,2.9-8.9,6.6-11.2,11.8c-2.1,4.2-2.8,8.9-2.8,13.6v68.5c0,2.6,0,5.4,0.7,8.2c1.6,7.8,6.3,13.4,13.1,17.4
		c19.3,11,38.5,22.3,57.5,33.3c4.4,2.8,8.9,5.2,14.1,6.8h8.2c0,0,0.2,0,0.5,0.1c6.3-3.3,13.1-6.1,19.2-9.6
		c17.6-10.1,35-20.2,52.4-30.3c9.2-5.4,13.8-13.3,14.1-23.9v-71.6C363.3,174,363.1,171.4,362.4,168.9z M348,247.6
		c0,5.6-2.5,9.6-7.3,12.4c-7.3,4.2-14.3,8.4-21.6,12.4c-13.3,7.5-26.3,15-39.4,22.7c-4.9,2.8-9.6,2.8-14.3,0
		c-18.5-10.8-36.8-21.4-55.4-32.2c-1.9-1.2-3.5-2.2-5.2-3.1c-5.2-3.1-7.5-7.3-7.5-13.1v-70.6c0-5.2,2.6-9.2,7.1-11.8
		c20-11.5,39.9-23.2,59.9-34.7c1.9-0.9,3.8-2.1,5.9-2.4c3.8-0.7,6.8,0.2,9.9,2.1c8.7,5.2,17.1,10.1,25.8,15
		c11.3,6.3,22.5,12.9,34.1,19.5c3.1,1.6,5.4,3.7,6.8,6.8c0.9,2.1,1.2,4,1.2,6.1v35c0,9.4,0,18.6,0.1,28.5V247.6z"/>
	<path class="st1" d="M348,211.9v-35c0-2.1-0.3-4-1.2-6.1c-1.4-3.1-3.7-5.2-6.8-6.8c-11.5-6.6-22.7-13.1-34.1-19.5
		c-8.7-4.9-17.1-9.9-25.8-15c-3.1-1.9-6.1-2.8-9.9-2.1c-2.1,0.3-4,1.4-5.9,2.4c-19.9,11.5-39.9,23.2-59.9,34.7
		c-4.4,2.5-7.1,6.6-7.1,11.8v70.6c0,5.9,2.4,10.1,7.5,13.1c1.6,0.9,3.3,1.9,5.2,3.1c18.6,10.8,36.9,21.4,55.4,32.2
		c4.7,2.8,9.4,2.8,14.3,0c13.1-7.7,26.1-15.2,39.4-22.7c7.3-4,14.3-8.2,21.6-12.4c4.7-2.8,7.3-6.8,7.3-12.4v-7.3
		C348,230.4,348,221.3,348,211.9z M310.5,184.7c-3.8,3.7-8.7,6.1-14.1,7.7c0,1.4,0.7,2.4,0.7,3.7c1.4,6.3,1.6,12.9,0.5,19.2
		c-1.9,11.5-6.6,22.3-12.4,32.2c-2.4,4-4.9,7.7-7.7,11.5c-0.5,0.7-0.7,0.7-1.2,0c-1.4-1.9-2.5-3.5-4-5.2c-0.7-0.9-0.7-1.2,0-2.1
		c4.9-6.8,9.2-14.1,12.4-21.8c2.4-5.6,4-11.2,4.9-17.4c0.7-5.9,0.5-11.6-1.5-17.3c-2.5,0.5-5.1,1.4-7.6,2.3
		c-6.1,2.8-11,7.1-15.2,12.2c-5.6,6.8-9.9,14.6-13.6,22.3c-5.9,11.8-11,23.9-16.4,36.1c-0.5,0.9-0.7,1.9-1.4,2.8
		c-0.3,0.7-0.7,0.9-1.6,0.7c-0.7-0.3-1.4-0.7-1.9-0.9c-0.7-0.3-0.7-0.9-0.7-1.6c0.7-2.1,1.6-4.2,2.5-6.3c0.3-0.7,0.7-1.9,0.7-2.8
		c0.7-0.3,0.9-0.7,1.4-1.4c1.4-3.7,3.1-7.3,4.7-10.8c3.1-7.1,6.6-13.6,9.9-20.7c0.7-1.9,1.9-3.5,2.8-5.2c0.3-0.7,0.7-1.4,0.7-1.9
		c0.5,0,0.7-0.5,0.7-0.7c3.7-6.3,7.7-12.4,13.1-17.6c5.5-5.7,12.3-9.7,20.1-11.3c0.2,0.4,0.4,0.7,0.7,1.1c-0.2-0.6-0.5-1.1-0.9-1.6
		c0-0.3-0.3-0.5-0.3-0.7c-2.8-5.4-5.4-10.8-8.2-15.9c-1.9-3.5-3.5-7.3-5.4-11c-0.3,0.3-0.3,0.7-0.5,0.7
		c-6.1,17.4-12.2,34.5-18.6,51.9c-0.5,1.4-1.2,3.1-1.4,4.4c-0.3,0.7-0.3,1.4-0.7,1.9c-1.2,1.6-1.9,3.5-2.8,5.2
		c-3.3,6.8-6.8,13.6-9.9,20.7c-1.4,3.5-3.5,7.1-4.7,10.8c-0.3,0.7-0.5,1.4-1.4,1.4c2.5-7.3,5.2-14.8,7.7-22.3
		c9.9-27.5,19.5-54.7,29.1-82.2c0.7-1.9,1.9-3.1,3.7-3.1c2.1-0.3,3.5,0.9,4.2,2.8c2.5,5.2,5.2,10.3,7.7,15.5
		c3.1,5.9,5.9,11.8,8.9,17.4c0.3,0.7,0.7,1.9,0.9,2.5c0.7,0.7,1,1.3,1.3,1.7c-0.2-0.4-0.3-0.8-0.5-1.2c-0.3-0.7-0.7-1.9-0.9-2.5
		c3.1-0.7,6.1-2.1,8.9-3.7c2.5-1.6,5.2-3.5,6.8-6.1c1.6-2.4,2.4-5.2,1.9-8.2c-0.3-0.7,0-1.2,0.7-1.2c0.7,0,1.6-0.3,2.4-0.3
		c1.2-0.3,1.4,0.3,1.4,1.4C316.6,175.8,314.7,180.7,310.5,184.7z"/>
	<path class="st0" d="M297.5,215.3c-1.9,11.5-6.6,22.3-12.4,32.2c-2.4,4-4.9,7.7-7.7,11.5c-0.5,0.7-0.7,0.7-1.2,0
		c-1.4-1.9-2.5-3.5-4-5.2c-0.7-0.9-0.7-1.2,0-2.1c4.9-6.8,9.2-14.1,12.4-21.8c2.4-5.6,4-11.2,4.9-17.4c0.7-5.9,0.5-11.6-1.5-17.3
		c0-0.1,0-0.1-0.1-0.2c0-0.1-0.1-0.2-0.1-0.3c0,0,0,0,0,0c-0.3-0.3-0.3-0.5-0.3-0.7c-0.2-0.8-0.4-1.6-0.7-2.4
		c-0.2-0.6-0.5-1.1-0.9-1.6c0-0.3-0.3-0.5-0.3-0.7c-2.8-5.4-5.4-10.8-8.2-15.9c-1.9-3.5-3.5-7.3-5.4-11c-0.3,0.3-0.3,0.7-0.5,0.7
		c-6.1,17.4-12.2,34.5-18.6,51.9c-0.5,1.4-1.2,3.1-1.4,4.4c-0.3,0.7-0.3,1.4-0.7,1.9c-1.2,1.6-1.9,3.5-2.8,5.2
		c-3.3,6.8-6.8,13.6-9.9,20.7c-1.4,3.5-3.5,7.1-4.7,10.8c-0.3,0.7-0.5,1.4-1.4,1.4c2.5-7.3,5.2-14.8,7.7-22.3
		c9.9-27.5,19.5-54.7,29.1-82.2c0.7-1.9,1.9-3.1,3.7-3.1c2.1-0.3,3.5,0.9,4.2,2.8c2.5,5.2,5.2,10.3,7.7,15.5
		c3.1,5.9,5.9,11.8,8.9,17.4c0.3,0.7,0.7,1.9,0.9,2.5c0.7,0.7,1,1.3,1.3,1.7c0.2,0.3,0.4,0.5,0.7,0.7c0,1.4,0.7,2.4,0.7,3.7
		C298.5,202.5,298.7,209,297.5,215.3z"/>
	<path class="st2" d="M288.2,195.2C288.1,195.2,288.1,195.2,288.2,195.2c-2.6,0.5-5.2,1.4-7.7,2.4c-6.1,2.8-11,7.1-15.2,12.2
		c-5.6,6.8-9.9,14.6-13.6,22.3c-5.9,11.8-11,23.9-16.4,36.1c-0.5,0.9-0.7,1.9-1.4,2.8c-0.3,0.7-0.7,0.9-1.6,0.7
		c-0.7-0.3-1.4-0.7-1.9-0.9c-0.7-0.3-0.7-0.9-0.7-1.6c0.7-2.1,1.6-4.2,2.5-6.3c0.3-0.7,0.7-1.9,0.7-2.8c0.7-0.3,0.9-0.7,1.4-1.4
		c1.4-3.7,3.1-7.3,4.7-10.8c3.1-7.1,6.6-13.6,9.9-20.7c0.7-1.9,1.9-3.5,2.8-5.2c0.3-0.7,0.7-1.4,0.7-1.9c0.5,0,0.7-0.5,0.7-0.7
		c3.7-6.3,7.7-12.4,13.1-17.6c5.5-5.7,12.3-9.7,20.1-11.3c0.2,0.4,0.4,0.7,0.7,1.1c0.5,0.9,1,1.8,1,2.9c0,0.1,0,0.2,0,0.2
		c0,0.1,0,0.2,0.1,0.3C288.1,195.1,288.1,195.2,288.2,195.2z"/>
	<path class="st2" d="M310.5,184.7c-3.8,3.7-8.7,6.1-14.1,7.7c-0.3-0.1-0.5-0.4-0.7-0.7c-0.2-0.4-0.3-0.8-0.5-1.2
		c-0.3-0.7-0.7-1.9-0.9-2.5c3.1-0.7,6.1-2.1,8.9-3.7c2.5-1.6,5.2-3.5,6.8-6.1c1.6-2.4,2.4-5.2,1.9-8.2c-0.3-0.7,0-1.2,0.7-1.2
		c0.7,0,1.6-0.3,2.4-0.3c1.2-0.3,1.4,0.3,1.4,1.4C316.6,175.8,314.7,180.7,310.5,184.7z"/>
	<g>
		<path class="st0" d="M371.1,264.5c0.8-0.5,2-0.9,3.7-1.4c1.6-0.5,3.3-0.7,5-0.7c2.4,0,4.5,0.3,6.3,1s3,1.8,3.5,3.2
			c0.8,2.5,1.8,5.4,2.8,8.6c1,3.3,2,6.7,3,10.1s2,6.9,2.9,10.3c1,3.4,1.8,6.4,2.5,9c-0.6,0.7-1.4,1.2-2.5,1.6
			c-1.2,0.4-2.5,0.6-4.1,0.6c-1.2,0-2.1-0.1-2.9-0.3c-0.8-0.2-1.4-0.5-2-0.8c-0.5-0.4-0.9-0.8-1.2-1.5c-0.3-0.6-0.6-1.3-0.8-2.2
			l-1.3-4.9h-12.9c-0.4,1.4-0.8,2.9-1.2,4.4s-0.8,3-1.2,4.4c-0.7,0.3-1.4,0.5-2.1,0.6c-0.7,0.2-1.6,0.3-2.7,0.3
			c-2.4,0-4.2-0.4-5.4-1.2c-1.2-0.8-1.8-2-1.8-3.5c0-0.7,0.1-1.3,0.3-2c0.2-0.7,0.4-1.4,0.7-2.4c0.3-1.3,0.8-2.9,1.4-4.8
			c0.6-1.9,1.2-3.9,2-6.1c0.7-2.2,1.5-4.4,2.3-6.8c0.8-2.4,1.6-4.5,2.3-6.6c0.7-2.1,1.4-3.9,2-5.5
			C370.3,266.6,370.8,265.3,371.1,264.5z M379.7,273.6c-0.7,2-1.4,4.2-2.3,6.7c-0.8,2.4-1.6,4.9-2.3,7.5h8.9c-0.7-2.5-1.4-5-2-7.5
			c-0.7-2.4-1.3-4.6-1.9-6.6H379.7z"/>
		<path class="st0" d="M419.3,306c-0.5,0.1-1.4,0.3-2.5,0.5c-1.1,0.1-2.2,0.2-3.3,0.2s-2.1-0.1-2.9-0.3c-0.8-0.2-1.6-0.5-2.1-0.9
			c-0.5-0.5-1-1-1.3-1.8c-0.3-0.8-0.5-1.8-0.5-3v-37.5c0.5-0.1,1.4-0.2,2.5-0.4c1.2-0.2,2.2-0.3,3.3-0.3c1.1,0,2.1,0.1,2.9,0.3
			c0.8,0.2,1.6,0.5,2.1,0.9c0.5,0.5,1,1,1.3,1.8c0.3,0.8,0.5,1.8,0.5,3L419.3,306L419.3,306z"/>
		<path class="st0" d="M440.9,289.1c-2.1-0.7-4-1.4-5.8-2.2c-1.7-0.7-3.2-1.6-4.4-2.7c-1.2-1-2.2-2.3-2.9-3.7c-0.7-1.4-1-3.2-1-5.3
			c0-4.1,1.6-7.3,4.7-9.7c3.1-2.4,7.5-3.6,13.1-3.6c2,0,4,0.1,5.8,0.5c1.8,0.3,3.3,0.7,4.6,1.3c1.2,0.6,2.3,1.4,2.9,2.3
			c0.7,0.9,1,2,1,3.2c0,1.2-0.3,2.3-0.8,3.1c-0.6,0.8-1.2,1.6-2.1,2.2c-1-0.7-2.5-1.2-4.2-1.8s-3.7-0.7-5.8-0.7
			c-2.2,0-3.7,0.3-4.7,0.9c-1,0.6-1.5,1.3-1.5,2.2c0,0.7,0.3,1.3,0.9,1.8c0.6,0.5,1.6,0.8,2.8,1.2l3.8,1.2c4.5,1.4,7.9,3.2,10.3,5.4
			s3.6,5.2,3.6,9c0,4.1-1.6,7.3-4.8,9.8c-3.2,2.5-7.9,3.7-14.1,3.7c-2.2,0-4.2-0.2-6.1-0.5c-1.9-0.3-3.5-0.8-5-1.6
			c-1.4-0.7-2.5-1.6-3.3-2.5c-0.8-1-1.2-2.2-1.2-3.5c0-1.4,0.4-2.5,1.2-3.5c0.8-1,1.7-1.7,2.7-2.2c1.3,1,2.9,2,4.9,2.7
			c2,0.8,4.1,1.1,6.3,1.1c2.4,0,4-0.3,5-1s1.4-1.6,1.4-2.5s-0.4-1.7-1.2-2.2c-0.8-0.5-1.8-1-3.2-1.4L440.9,289.1z"/>
		<path class="st0" d="M480.4,289.1c-2.1-0.7-4-1.4-5.8-2.2c-1.7-0.7-3.2-1.6-4.4-2.7c-1.2-1-2.2-2.3-2.9-3.7c-0.7-1.4-1-3.2-1-5.3
			c0-4.1,1.6-7.3,4.7-9.7s7.5-3.6,13.1-3.6c2,0,4,0.1,5.8,0.5c1.8,0.3,3.3,0.7,4.6,1.3c1.2,0.6,2.3,1.4,2.9,2.3c0.7,0.9,1,2,1,3.2
			c0,1.2-0.3,2.3-0.8,3.1c-0.6,0.8-1.2,1.6-2.1,2.2c-1-0.7-2.5-1.2-4.2-1.8s-3.7-0.7-5.8-0.7c-2.2,0-3.7,0.3-4.7,0.9
			c-1,0.6-1.5,1.3-1.5,2.2c0,0.7,0.3,1.3,0.9,1.8c0.6,0.5,1.6,0.8,2.8,1.2l3.8,1.2c4.5,1.4,7.9,3.2,10.3,5.4c2.4,2.2,3.6,5.2,3.6,9
			c0,4.1-1.6,7.3-4.8,9.8c-3.2,2.5-7.9,3.7-14.1,3.7c-2.2,0-4.2-0.2-6.1-0.5c-1.9-0.3-3.5-0.8-5-1.6c-1.4-0.7-2.5-1.6-3.3-2.5
			c-0.8-1-1.2-2.2-1.2-3.5c0-1.4,0.4-2.5,1.2-3.5c0.8-1,1.7-1.7,2.7-2.2c1.3,1,2.9,2,4.9,2.7c2,0.8,4.1,1.1,6.3,1.1c2.4,0,4-0.3,5-1
			s1.4-1.6,1.4-2.5s-0.4-1.7-1.2-2.2c-0.8-0.5-1.8-1-3.2-1.4L480.4,289.1z"/>
		<path class="st0" d="M517.1,264.5c0.8-0.5,2-0.9,3.7-1.4c1.6-0.5,3.3-0.7,5-0.7c2.4,0,4.5,0.3,6.3,1s3,1.8,3.5,3.2
			c0.8,2.5,1.8,5.4,2.8,8.6c1,3.3,2,6.7,3,10.1s2,6.9,2.9,10.3c1,3.4,1.8,6.4,2.5,9c-0.6,0.7-1.4,1.2-2.5,1.6
			c-1.2,0.4-2.5,0.6-4.1,0.6c-1.2,0-2.1-0.1-2.9-0.3c-0.8-0.2-1.4-0.5-2-0.8c-0.5-0.4-0.9-0.8-1.2-1.5c-0.3-0.6-0.6-1.3-0.8-2.2
			l-1.3-4.9h-12.9c-0.4,1.4-0.8,2.9-1.2,4.4s-0.8,3-1.2,4.4c-0.7,0.3-1.4,0.5-2.1,0.6c-0.7,0.2-1.6,0.3-2.7,0.3
			c-2.4,0-4.2-0.4-5.4-1.2c-1.2-0.8-1.8-2-1.8-3.5c0-0.7,0.1-1.3,0.3-2c0.2-0.7,0.4-1.4,0.7-2.4c0.3-1.3,0.8-2.9,1.4-4.8
			c0.6-1.9,1.2-3.9,2-6.1c0.7-2.2,1.5-4.4,2.3-6.8c0.8-2.4,1.6-4.5,2.3-6.6c0.7-2.1,1.4-3.9,2-5.5
			C516.3,266.6,516.8,265.3,517.1,264.5z M525.7,273.6c-0.7,2-1.4,4.2-2.3,6.7c-0.8,2.4-1.6,4.9-2.3,7.5h8.9c-0.7-2.5-1.4-5-2-7.5
			c-0.7-2.4-1.3-4.6-1.9-6.6H525.7z"/>
	</g>
	<g>
		<path class="st0" d="M168.2,336.1c-0.3-0.5-0.7-1.2-0.9-2.2c-0.3-0.9-0.5-1.8-0.5-2.9c0-1.8,0.4-3.2,1.2-4
			c0.8-0.8,1.9-1.2,3.3-1.2h31.2c0.3,0.5,0.7,1.2,0.9,2.2c0.3,0.9,0.5,1.9,0.5,2.9c0,1.9-0.4,3.2-1.2,4s-1.9,1.2-3.3,1.2h-8v33.1
			c-0.5,0.1-1.4,0.3-2.5,0.5c-1.1,0.1-2.2,0.2-3.3,0.2s-2.1-0.1-2.9-0.3c-0.8-0.2-1.6-0.5-2.1-0.9c-0.6-0.5-1-1-1.3-1.8
			c-0.3-0.8-0.5-1.8-0.5-3v-27.8H168.2z"/>
		<path class="st0" d="M210.1,332.7c0-2,0.6-3.7,1.8-4.9c1.2-1.2,2.8-1.8,4.9-1.8h23.7c0.3,0.5,0.7,1.2,0.9,2.1
			c0.3,0.8,0.4,1.8,0.4,2.7c0,1.8-0.4,3.1-1.2,3.9c-0.8,0.8-1.8,1.2-3.1,1.2h-15.1v6.7h16.1c0.3,0.5,0.7,1.2,0.9,2
			c0.3,0.8,0.4,1.7,0.4,2.7c0,1.8-0.4,3.1-1.2,3.9c-0.8,0.8-1.8,1.2-3.1,1.2h-13.2v7.5h18.4c0.3,0.5,0.7,1.2,0.9,2.1
			c0.3,0.8,0.4,1.8,0.4,2.7c0,1.8-0.4,3.1-1.2,3.9c-0.8,0.8-1.8,1.2-3.1,1.2h-20.9c-2,0-3.7-0.6-4.9-1.8c-1.2-1.2-1.8-2.8-1.8-4.9
			L210.1,332.7L210.1,332.7z"/>
		<path class="st0" d="M271.1,334.8c-3.7,0-6.5,1.1-8.4,3.4c-2,2.2-2.9,5.4-2.9,9.5c0,4.2,1.1,7.4,3.3,9.6c2.2,2.2,5.1,3.4,8.8,3.4
			c2,0,3.6-0.3,5-0.8c1.4-0.5,2.7-1.1,3.9-1.8c0.8,0.7,1.4,1.4,1.9,2.4c0.5,0.9,0.7,2,0.7,3.3c0,2-1.1,3.6-3.3,5
			c-2.2,1.4-5.5,2-9.9,2c-3.2,0-6.2-0.5-9-1.4c-2.8-0.9-5.3-2.3-7.4-4.2c-2.1-1.9-3.8-4.2-5-7.2c-1.2-2.9-1.8-6.3-1.8-10.3
			c0-3.7,0.6-7,1.8-9.9c1.2-2.8,2.7-5.2,4.8-7.2s4.4-3.5,7.1-4.4s5.6-1.5,8.8-1.5c4.4,0,7.8,0.7,10.2,2.2c2.4,1.4,3.6,3.3,3.6,5.5
			c0,1.2-0.3,2.3-0.9,3.2c-0.7,0.9-1.3,1.6-2.2,2.2c-1.2-0.8-2.5-1.5-4-2.1C274.6,335.1,272.9,334.8,271.1,334.8z"/>
		<path class="st0" d="M329.2,368c-0.7,0.7-1.6,1.2-2.9,1.6c-1.2,0.3-2.8,0.5-4.6,0.5s-3.5-0.3-5-0.8s-2.9-1.8-3.9-3.8l-7.1-14.4
			c-0.7-1.5-1.4-2.9-2-4.2c-0.6-1.3-1.2-2.8-1.8-4.6l-0.5,0.1c0.2,2.5,0.3,5.2,0.3,7.9c0,2.7,0.1,5.3,0.1,7.9v11.1
			c-0.5,0.1-1.3,0.3-2.4,0.5c-1,0.1-2.2,0.2-3.2,0.2s-2-0.1-2.8-0.2c-0.8-0.1-1.5-0.5-2-0.8c-0.5-0.5-0.9-1-1.2-1.8
			c-0.3-0.7-0.5-1.7-0.5-2.9v-35.8c0.7-1,1.7-1.7,3.1-2.2c1.4-0.5,2.9-0.7,4.4-0.7c1.8,0,3.5,0.3,5,0.8c1.6,0.5,2.9,1.8,3.9,3.8
			l7.2,14.4c0.7,1.5,1.4,2.9,2,4.2c0.6,1.3,1.2,2.8,1.9,4.6l0.3-0.1c-0.2-2.5-0.3-5.2-0.3-7.7c-0.1-2.5-0.1-5.2-0.1-7.7v-11.6
			c0.5-0.1,1.3-0.3,2.4-0.5c1-0.1,2.2-0.2,3.2-0.2c2.1,0,3.7,0.4,4.8,1.1c1.1,0.7,1.6,2.3,1.6,4.6L329.2,368L329.2,368z"/>
		<path class="st0" d="M336.3,347.8c0-3.7,0.6-7,1.8-9.9c1.2-2.9,2.7-5.3,4.8-7.2c2-2,4.4-3.4,7.2-4.4c2.7-1,5.8-1.5,8.9-1.5
			c3.2,0,6.1,0.5,8.9,1.5s5.2,2.5,7.2,4.4c2,2,3.7,4.3,4.8,7.2s1.8,6.1,1.8,9.9c0,3.7-0.6,7.1-1.7,9.9c-1.2,2.9-2.7,5.3-4.8,7.3
			c-2,2-4.4,3.4-7.2,4.4s-5.8,1.5-9,1.5s-6.3-0.5-9-1.6c-2.7-1-5.2-2.5-7.2-4.5c-2-2-3.6-4.4-4.7-7.3
			C336.9,354.6,336.3,351.4,336.3,347.8z M349.2,347.8c0,4.4,0.9,7.6,2.7,9.7s4.1,3.2,7.1,3.2s5.4-1,7.2-3.2s2.7-5.4,2.7-9.7
			s-0.8-7.5-2.6-9.7s-4.1-3.2-7.1-3.2c-2.9,0-5.4,1-7.1,3.2C350.1,340.2,349.2,343.4,349.2,347.8z"/>
		<path class="st0" d="M395.5,369.7c-2,0-3.7-0.6-4.9-1.8c-1.2-1.2-1.8-2.8-1.8-4.9V326c0.5-0.1,1.4-0.2,2.5-0.4
			c1.2-0.2,2.2-0.3,3.3-0.3c1.1,0,2.1,0.1,2.9,0.3c0.8,0.2,1.6,0.5,2.1,0.9c0.6,0.5,1,1,1.3,1.8c0.3,0.8,0.5,1.8,0.5,3v28.3h16.4
			c0.3,0.5,0.7,1.2,0.9,2.1c0.3,0.9,0.5,1.8,0.5,2.7c0,1.9-0.4,3.3-1.2,4.1c-0.8,0.8-1.9,1.2-3.2,1.2L395.5,369.7L395.5,369.7z"/>
		<path class="st0" d="M421.3,347.8c0-3.7,0.6-7,1.8-9.9c1.2-2.9,2.7-5.3,4.8-7.2c2-2,4.4-3.4,7.2-4.4c2.7-1,5.8-1.5,8.9-1.5
			c3.2,0,6.1,0.5,8.9,1.5s5.2,2.5,7.2,4.4c2,2,3.7,4.3,4.8,7.2s1.8,6.1,1.8,9.9c0,3.7-0.6,7.1-1.7,9.9c-1.2,2.9-2.7,5.3-4.8,7.3
			c-2,2-4.4,3.4-7.2,4.4c-2.7,1-5.8,1.5-9,1.5s-6.3-0.5-9-1.6c-2.7-1-5.2-2.5-7.2-4.5c-2-2-3.6-4.4-4.7-7.3
			C421.9,354.6,421.3,351.4,421.3,347.8z M434.2,347.8c0,4.4,0.9,7.6,2.7,9.7s4.1,3.2,7.1,3.2c3,0,5.4-1,7.2-3.2s2.7-5.4,2.7-9.7
			s-0.8-7.5-2.6-9.7s-4.1-3.2-7.1-3.2c-2.9,0-5.4,1-7.1,3.2C435.1,340.2,434.2,343.4,434.2,347.8z"/>
		<path class="st0" d="M513.1,362.4c0,1.5-0.3,2.5-0.8,3.3c-0.5,0.7-1.4,1.4-2.5,2.1c-0.7,0.4-1.5,0.8-2.5,1.1s-2.1,0.7-3.3,0.9
			s-2.4,0.5-3.8,0.6c-1.3,0.1-2.6,0.2-3.9,0.2c-3.5,0-6.7-0.5-9.7-1.4c-3-0.9-5.6-2.4-7.8-4.2s-4-4.2-5.3-7.1c-1.3-2.8-2-6.1-2-9.8
			c0-3.9,0.7-7.3,2.1-10.3c1.4-2.9,3.3-5.4,5.6-7.3c2.3-2,5-3.4,8-4.3c3-1,6.1-1.4,9.2-1.4c4.5,0,8.1,0.7,10.8,2.2
			c2.7,1.4,4,3.3,4,5.7c0,1.2-0.3,2.3-0.9,3.2c-0.7,0.9-1.3,1.6-2.2,2.2c-1.2-0.7-2.7-1.4-4.5-2.1c-1.8-0.7-3.8-1-6.1-1
			c-4,0-7.2,1.2-9.5,3.5c-2.4,2.3-3.5,5.5-3.5,9.5c0,2.2,0.3,4.1,1,5.7c0.7,1.6,1.5,2.9,2.6,3.9c1.1,1,2.4,1.8,3.8,2.3
			c1.4,0.5,2.9,0.8,4.6,0.8c1,0,2-0.1,2.8-0.3c0.8-0.2,1.4-0.4,1.8-0.7v-6.7h-7.6c-0.3-0.5-0.6-1.2-0.8-2.1
			c-0.3-0.8-0.4-1.8-0.4-2.7c0-1.7,0.4-2.9,1.2-3.7s1.8-1.2,3.1-1.2h12.1c1.4,0,2.5,0.4,3.3,1.2c0.8,0.8,1.2,1.9,1.2,3.3
			L513.1,362.4L513.1,362.4z"/>
		<path class="st0" d="M533.9,369.2c-0.5,0.1-1.4,0.3-2.5,0.5c-1.1,0.1-2.2,0.2-3.3,0.2s-2.1-0.1-2.9-0.3c-0.8-0.2-1.6-0.5-2.1-0.9
			c-0.6-0.5-1-1-1.3-1.8c-0.3-0.8-0.5-1.8-0.5-3v-37.8c0.5-0.1,1.4-0.2,2.5-0.4c1.2-0.2,2.2-0.3,3.3-0.3c1.1,0,2.1,0.1,2.9,0.3
			c0.8,0.2,1.6,0.5,2.1,0.9c0.6,0.5,1,1,1.3,1.8c0.3,0.8,0.5,1.8,0.5,3L533.9,369.2L533.9,369.2z"/>
		<path class="st0" d="M552.5,327.4c0.8-0.5,2-0.9,3.7-1.4c1.6-0.5,3.3-0.7,5-0.7c2.4,0,4.5,0.3,6.3,1s3,1.8,3.5,3.3
			c0.8,2.5,1.8,5.4,2.8,8.7c1,3.3,2,6.7,3,10.2s2,7,2.9,10.4s1.8,6.4,2.5,9.1c-0.6,0.7-1.4,1.2-2.5,1.6c-1.2,0.4-2.5,0.6-4.1,0.6
			c-1.2,0-2.1-0.1-2.9-0.3c-0.8-0.2-1.4-0.5-2-0.8c-0.5-0.4-0.9-0.9-1.2-1.5c-0.3-0.6-0.6-1.3-0.8-2.2l-1.3-5h-12.9
			c-0.4,1.4-0.8,2.9-1.2,4.4s-0.8,3-1.2,4.4c-0.7,0.3-1.4,0.5-2.1,0.6c-0.7,0.2-1.6,0.3-2.7,0.3c-2.4,0-4.2-0.4-5.4-1.2
			c-1.2-0.8-1.8-2-1.8-3.5c0-0.7,0.1-1.3,0.3-2c0.2-0.7,0.4-1.4,0.7-2.4c0.3-1.3,0.8-2.9,1.4-4.8s1.2-4,2-6.2
			c0.7-2.2,1.5-4.5,2.3-6.9s1.6-4.6,2.3-6.6c0.7-2.1,1.4-3.9,2-5.6C551.7,329.5,552.2,328.2,552.5,327.4z M561.1,336.7
			c-0.7,2-1.4,4.2-2.3,6.7c-0.8,2.5-1.6,5-2.3,7.5h8.9c-0.7-2.5-1.4-5.1-2-7.6c-0.7-2.5-1.3-4.6-1.9-6.6H561.1z"/>
	</g>
</g>
</svg>
